<?xml version="1.0" encoding="UTF-8" standalone="no"?>
<svg
   xmlns:dc="http://purl.org/dc/elements/1.1/"
   xmlns:cc="http://creativecommons.org/ns#"
   xmlns:rdf="http://www.w3.org/1999/02/22-rdf-syntax-ns#"
   xmlns:svg="http://www.w3.org/2000/svg"
   xmlns="http://www.w3.org/2000/svg"
   id="svg8"
   version="1.1"
   viewBox="0 0 210 297"
   height="297mm"
   width="210mm">
  <defs
     id="defs2" />
  <metadata
     id="metadata5">
    <rdf:RDF>
      <cc:Work
         rdf:about="">
        <dc:format>image/svg+xml</dc:format>
        <dc:type
           rdf:resource="http://purl.org/dc/dcmitype/StillImage" />
        <dc:title></dc:title>
      </cc:Work>
    </rdf:RDF>
  </metadata>
  <g
     id="layer1">
    <path
       id="path3760"
       d="M 12.85119,61.331845 41.388393,11.061012"
       style="display:inline;fill:none;fill-rule:evenodd;stroke:#000000;stroke-width:0.26458332px;stroke-linecap:butt;stroke-linejoin:miter;stroke-opacity:1" />
    <path
       id="path3762"
       d="M 41.388392,11.061011 58.019343,10.872023"
       style="fill:none;fill-rule:evenodd;stroke:#000000;stroke-width:0.26458332px;stroke-linecap:butt;stroke-linejoin:miter;stroke-opacity:1" />
    <path
       id="path3764"
       d="m 12.85119,61.331845 15.119048,6.803571"
       style="display:inline;fill:none;fill-rule:evenodd;stroke:#000000;stroke-width:0.26458332px;stroke-linecap:butt;stroke-linejoin:miter;stroke-opacity:1" />
    <path
       id="path3766"
       d="M 27.970239,68.135414 39.876489,46.968748"
       style="fill:none;fill-rule:evenodd;stroke:#000000;stroke-width:0.26458332px;stroke-linecap:butt;stroke-linejoin:miter;stroke-opacity:1" />
    <path
       id="path3768"
       d="m 39.876489,46.968748 14.174104,0.944941"
       style="fill:none;fill-rule:evenodd;stroke:#000000;stroke-width:0.26458332px;stroke-linecap:butt;stroke-linejoin:miter;stroke-opacity:1" />
    <path
       id="path3770"
       d="M 58.019343,10.872023 68.224701,38.464286"
       style="fill:none;fill-rule:evenodd;stroke:#000000;stroke-width:0.26458332px;stroke-linecap:butt;stroke-linejoin:miter;stroke-opacity:1" />
    <path
       id="path3772"
       d="M 54.050593,47.913689 68.224701,38.464286"
       style="fill:none;fill-rule:evenodd;stroke:#000000;stroke-width:0.26458332px;stroke-linecap:butt;stroke-linejoin:miter;stroke-opacity:1" />
    <path
       id="path3778"
       d="M 56.318451,52.071428 70.492558,42.244047"
       style="fill:none;fill-rule:evenodd;stroke:#000000;stroke-width:0.26458332px;stroke-linecap:butt;stroke-linejoin:miter;stroke-opacity:1" />
    <path
       id="path3782"
       d="m 56.318451,52.071428 1.13393,38.364583"
       style="fill:none;fill-rule:evenodd;stroke:#000000;stroke-width:0.26458332px;stroke-linecap:butt;stroke-linejoin:miter;stroke-opacity:1" />
    <path
       id="path3784"
       d="M 57.452381,90.436011 67.27976,90.247022"
       style="fill:none;fill-rule:evenodd;stroke:#000000;stroke-width:0.26458332px;stroke-linecap:butt;stroke-linejoin:miter;stroke-opacity:1" />
    <path
       id="path3786"
       d="M 67.27976,90.247022 67.090773,76.261904"
       style="fill:none;fill-rule:evenodd;stroke:#000000;stroke-width:0.26458332px;stroke-linecap:butt;stroke-linejoin:miter;stroke-opacity:1" />
    <path
       id="path3788"
       d="M 70.492558,42.244047 86.178571,58.686011"
       style="fill:none;fill-rule:evenodd;stroke:#000000;stroke-width:0.26458332px;stroke-linecap:butt;stroke-linejoin:miter;stroke-opacity:1" />
    <path
       id="path3790"
       d="m 86.178569,58.686011 -9.071427,9.260417"
       style="fill:none;fill-rule:evenodd;stroke:#000000;stroke-width:0.26458332px;stroke-linecap:butt;stroke-linejoin:miter;stroke-opacity:1" />
    <path
       id="path3792"
       d="m 77.107142,67.946428 13.418155,7.9375"
       style="fill:none;fill-rule:evenodd;stroke:#000000;stroke-width:0.26458332px;stroke-linecap:butt;stroke-linejoin:miter;stroke-opacity:1" />
    <path
       id="path3794"
       d="M 90.525295,75.883928 79.18601,87.412202"
       style="fill:none;fill-rule:evenodd;stroke:#000000;stroke-width:0.26458332px;stroke-linecap:butt;stroke-linejoin:miter;stroke-opacity:1" />
    <path
       id="path3796"
       d="M 67.090773,76.261904 79.18601,87.412202"
       style="fill:none;fill-rule:evenodd;stroke:#000000;stroke-width:0.26458332px;stroke-linecap:butt;stroke-linejoin:miter;stroke-opacity:1" />
    <path
       id="path3800"
       d="M 66.523808,65.86756 65.956843,54.150296"
       style="fill:none;fill-rule:evenodd;stroke:#000000;stroke-width:0.26458332px;stroke-linecap:butt;stroke-linejoin:miter;stroke-opacity:1" />
    <path
       id="path3814"
       d="m 65.956843,54.150296 8.878623,4.044381"
       style="fill:none;fill-rule:evenodd;stroke:#000000;stroke-width:0.26458332px;stroke-linecap:butt;stroke-linejoin:miter;stroke-opacity:1" />
    <path
       id="path3816"
       d="m 66.523808,65.86756 8.311658,-7.672883"
       style="fill:none;fill-rule:evenodd;stroke:#000000;stroke-width:0.26458332px;stroke-linecap:butt;stroke-linejoin:miter;stroke-opacity:1" />
    <path
       id="path3826"
       d="m 41.293142,40.421253 13.096205,0.267268"
       style="fill:none;fill-rule:evenodd;stroke:#000000;stroke-width:0.26458332px;stroke-linecap:butt;stroke-linejoin:miter;stroke-opacity:1" />
    <path
       id="path3828"
       d="M 41.293142,40.421253 48.776688,25.053255"
       style="fill:none;fill-rule:evenodd;stroke:#000000;stroke-width:0.26458332px;stroke-linecap:butt;stroke-linejoin:miter;stroke-opacity:1" />
    <path
       id="path3830"
       d="M 54.389347,40.688521 48.776688,25.053255"
       style="fill:none;fill-rule:evenodd;stroke:#000000;stroke-width:0.26458332px;stroke-linecap:butt;stroke-linejoin:miter;stroke-opacity:1" />
    <path
       transform="scale(0.26458333)"
       id="path3834"
       d="M 77.057117,243.85312 49.661604,231.459 l 1.463405,-2.57833 c 0.804872,-1.41809 24.80443,-43.71681 53.332351,-93.99715 28.52792,-50.280346 52.06999,-91.631744 52.31571,-91.891999 0.35815,-0.379328 61.48852,-1.435944 61.94351,-1.070671 0.20772,0.16676 38.01655,102.53721 38.01655,102.93286 0,0.21055 -11.83591,8.27302 -26.30201,17.9166 l -26.302,17.53378 -26.78028,-1.7584 -26.78027,-1.7584 -0.88052,1.27147 c -0.48429,0.69931 -10.61859,18.6019 -22.52067,39.78353 -11.90208,21.18164 -21.88193,38.48797 -22.17745,38.45851 -0.29552,-0.0294 -12.865281,-5.63092 -27.932813,-12.44768 z M 205.94545,153.86838 c 0.15656,-0.25331 -4.35606,-13.37898 -10.02803,-29.16815 -12.16038,-33.851053 -10.87487,-30.475353 -11.60547,-30.475353 -0.85867,0 -29.09252,58.222343 -28.52691,58.826643 0.78551,0.83925 49.65473,1.63509 50.16041,0.81686 z"
       style="fill:#ff0000;stroke-width:0.50507629" />
    <path
       transform="scale(0.26458333)"
       id="path3840"
       d="m 217.84082,340.52276 c -7.9e-4,-0.31805 -0.9097,-31.03438 -2.01981,-68.2585 -1.11011,-37.22412 -2.01206,-69.38485 -2.00433,-71.46829 l 0.014,-3.78807 25.81463,-17.87177 c 14.19805,-9.82948 26.10971,-17.89807 26.47035,-17.93021 0.59429,-0.053 58.29764,59.92889 58.29764,60.59961 0,0.157 -7.44357,7.87762 -16.54125,17.15694 -9.09769,9.27932 -16.5937,17.27269 -16.65781,17.76304 -0.0892,0.68244 5.72525,4.32678 24.79182,15.53875 l 24.90837,14.64721 -20.70719,21.10161 c -11.38895,11.60589 -20.8805,21.03819 -21.09234,20.96067 -0.21184,-0.0775 -10.41937,-9.38922 -22.68339,-20.69267 -13.55247,-12.49098 -22.56884,-20.44789 -22.98818,-20.28697 -0.70763,0.27154 -0.70979,4.69031 -0.0199,40.66957 l 0.21951,11.44763 -4.13705,0.28065 c -9.25008,0.62751 -31.66368,0.72009 -31.66514,0.1308 z m 49.99106,-105.67079 c 8.67789,-8.02241 15.50426,-14.70806 15.37134,-15.05445 -0.35064,-0.91375 -33.71136,-16.00109 -34.23205,-15.4814 -0.24773,0.24726 -0.0803,7.86812 0.385,17.52531 1.27523,26.46632 1.352,27.44186 2.15958,27.44186 0.38812,0 7.73038,-6.4941 16.31613,-14.43132 z"
       style="fill:#ff0000;stroke-width:0.50507629" />
  </g>
</svg>
